<mxfile host="app.diagrams.net" modified="2023-07-01T10:39:01.706Z" agent="Mozilla/5.0 (Windows NT 10.0; Win64; x64) AppleWebKit/537.36 (KHTML, like Gecko) Chrome/114.0.0.0 Safari/537.36" etag="Ce_Lw-dD01Zw6GoPKFKI" version="21.5.2" type="github">
  <diagram id="C5RBs43oDa-KdzZeNtuy" name="Page-1">
    <mxGraphModel dx="2614" dy="537" grid="1" gridSize="10" guides="1" tooltips="1" connect="1" arrows="1" fold="1" page="1" pageScale="1" pageWidth="827" pageHeight="1169" math="0" shadow="0">
      <root>
        <mxCell id="WIyWlLk6GJQsqaUBKTNV-0" />
        <mxCell id="WIyWlLk6GJQsqaUBKTNV-1" parent="WIyWlLk6GJQsqaUBKTNV-0" />
        <mxCell id="_AjF4Cdxy0v_PtBoaZ_c-81" value="" style="group" parent="WIyWlLk6GJQsqaUBKTNV-1" vertex="1" connectable="0">
          <mxGeometry x="-150" y="90" width="735" height="1210" as="geometry" />
        </mxCell>
        <mxCell id="_AjF4Cdxy0v_PtBoaZ_c-77" value="-+" style="rounded=0;whiteSpace=wrap;html=1;fillColor=#FFFFFF;" parent="_AjF4Cdxy0v_PtBoaZ_c-81" vertex="1">
          <mxGeometry width="735" height="1210" as="geometry" />
        </mxCell>
        <mxCell id="WIyWlLk6GJQsqaUBKTNV-3" value="Doctor logs in" style="rounded=1;whiteSpace=wrap;html=1;fontSize=12;glass=0;strokeWidth=1;shadow=0;fillColor=#FFFFFF;fontColor=#000000;strokeColor=#000000;" parent="_AjF4Cdxy0v_PtBoaZ_c-81" vertex="1">
          <mxGeometry x="297.5" y="10" width="120" height="40" as="geometry" />
        </mxCell>
        <mxCell id="WIyWlLk6GJQsqaUBKTNV-4" value="Yes" style="rounded=0;html=1;jettySize=auto;orthogonalLoop=1;fontSize=11;endArrow=classic;endFill=1;endSize=8;strokeWidth=1;shadow=0;labelBackgroundColor=none;edgeStyle=orthogonalEdgeStyle;exitX=0.5;exitY=1;exitDx=0;exitDy=0;fontColor=#000000;strokeColor=#000000;" parent="_AjF4Cdxy0v_PtBoaZ_c-81" source="WIyWlLk6GJQsqaUBKTNV-6" edge="1">
          <mxGeometry y="20" relative="1" as="geometry">
            <mxPoint as="offset" />
            <mxPoint x="507.5" y="260" as="targetPoint" />
          </mxGeometry>
        </mxCell>
        <mxCell id="WIyWlLk6GJQsqaUBKTNV-5" value="No" style="edgeStyle=orthogonalEdgeStyle;rounded=0;html=1;jettySize=auto;orthogonalLoop=1;fontSize=11;endArrow=classic;endFill=1;endSize=8;strokeWidth=1;shadow=0;labelBackgroundColor=none;entryX=1;entryY=0.5;entryDx=0;entryDy=0;fontColor=#000000;strokeColor=#000000;" parent="_AjF4Cdxy0v_PtBoaZ_c-81" target="WIyWlLk6GJQsqaUBKTNV-3" edge="1">
          <mxGeometry y="10" relative="1" as="geometry">
            <mxPoint as="offset" />
            <mxPoint x="407.4985714285715" y="140.0228571428571" as="sourcePoint" />
            <mxPoint x="467.47" y="70" as="targetPoint" />
            <Array as="points">
              <mxPoint x="437.5" y="140" />
              <mxPoint x="437.5" y="30" />
            </Array>
          </mxGeometry>
        </mxCell>
        <mxCell id="WIyWlLk6GJQsqaUBKTNV-6" value="Log in successful?" style="rhombus;whiteSpace=wrap;html=1;shadow=0;fontFamily=Helvetica;fontSize=12;align=center;strokeWidth=1;spacing=6;spacingTop=-4;fillColor=#FFFFFF;fontColor=#000000;strokeColor=#000000;" parent="_AjF4Cdxy0v_PtBoaZ_c-81" vertex="1">
          <mxGeometry x="307.5" y="100" width="100" height="80" as="geometry" />
        </mxCell>
        <mxCell id="WIyWlLk6GJQsqaUBKTNV-2" value="" style="rounded=0;html=1;jettySize=auto;orthogonalLoop=1;fontSize=11;endArrow=classic;endFill=1;endSize=8;strokeWidth=1;shadow=0;labelBackgroundColor=none;edgeStyle=orthogonalEdgeStyle;fontColor=#000000;strokeColor=#000000;" parent="_AjF4Cdxy0v_PtBoaZ_c-81" source="WIyWlLk6GJQsqaUBKTNV-3" target="WIyWlLk6GJQsqaUBKTNV-6" edge="1">
          <mxGeometry relative="1" as="geometry" />
        </mxCell>
        <mxCell id="WIyWlLk6GJQsqaUBKTNV-12" value="Generate training data" style="rounded=1;whiteSpace=wrap;html=1;fontSize=12;glass=0;strokeWidth=1;shadow=0;fillColor=#FFFFFF;fontColor=#000000;strokeColor=#000000;" parent="_AjF4Cdxy0v_PtBoaZ_c-81" vertex="1">
          <mxGeometry x="447.5" y="260" width="120" height="40" as="geometry" />
        </mxCell>
        <mxCell id="_AjF4Cdxy0v_PtBoaZ_c-0" value="Training data" style="shape=parallelogram;perimeter=parallelogramPerimeter;whiteSpace=wrap;html=1;fixedSize=1;fillColor=#FFFFFF;fontColor=#000000;strokeColor=#000000;" parent="_AjF4Cdxy0v_PtBoaZ_c-81" vertex="1">
          <mxGeometry x="447.5" y="360" width="120" height="60" as="geometry" />
        </mxCell>
        <mxCell id="_AjF4Cdxy0v_PtBoaZ_c-1" value="" style="edgeStyle=orthogonalEdgeStyle;rounded=0;orthogonalLoop=1;jettySize=auto;html=1;fontColor=#000000;strokeColor=#000000;" parent="_AjF4Cdxy0v_PtBoaZ_c-81" source="WIyWlLk6GJQsqaUBKTNV-12" target="_AjF4Cdxy0v_PtBoaZ_c-0" edge="1">
          <mxGeometry relative="1" as="geometry" />
        </mxCell>
        <mxCell id="_AjF4Cdxy0v_PtBoaZ_c-2" value="Check latest model parameters in the blockchain" style="rounded=1;whiteSpace=wrap;html=1;fontSize=12;glass=0;strokeWidth=1;shadow=0;fillColor=#FFFFFF;fontColor=#000000;strokeColor=#000000;" parent="_AjF4Cdxy0v_PtBoaZ_c-81" vertex="1">
          <mxGeometry x="147.5" y="260" width="190" height="50" as="geometry" />
        </mxCell>
        <mxCell id="_AjF4Cdxy0v_PtBoaZ_c-6" value="Same parameters already trained locally?" style="rhombus;whiteSpace=wrap;html=1;shadow=0;fontFamily=Helvetica;fontSize=12;align=center;strokeWidth=1;spacing=6;spacingTop=-4;fillColor=#FFFFFF;fontColor=#000000;strokeColor=#000000;" parent="_AjF4Cdxy0v_PtBoaZ_c-81" vertex="1">
          <mxGeometry x="181.25" y="360" width="122.5" height="110" as="geometry" />
        </mxCell>
        <mxCell id="_AjF4Cdxy0v_PtBoaZ_c-7" value="" style="edgeStyle=orthogonalEdgeStyle;rounded=0;orthogonalLoop=1;jettySize=auto;html=1;fontColor=#000000;strokeColor=#000000;" parent="_AjF4Cdxy0v_PtBoaZ_c-81" source="_AjF4Cdxy0v_PtBoaZ_c-2" target="_AjF4Cdxy0v_PtBoaZ_c-6" edge="1">
          <mxGeometry relative="1" as="geometry" />
        </mxCell>
        <mxCell id="_AjF4Cdxy0v_PtBoaZ_c-15" style="edgeStyle=orthogonalEdgeStyle;rounded=0;orthogonalLoop=1;jettySize=auto;html=1;exitX=-0.006;exitY=0.471;exitDx=0;exitDy=0;exitPerimeter=0;fontColor=#000000;strokeColor=#000000;" parent="_AjF4Cdxy0v_PtBoaZ_c-81" source="_AjF4Cdxy0v_PtBoaZ_c-8" edge="1">
          <mxGeometry relative="1" as="geometry">
            <mxPoint x="37.49000000000022" y="532.5" as="sourcePoint" />
            <mxPoint x="147.5" y="287.82" as="targetPoint" />
            <Array as="points">
              <mxPoint x="17.5" y="534" />
              <mxPoint x="17.5" y="288" />
            </Array>
          </mxGeometry>
        </mxCell>
        <mxCell id="_AjF4Cdxy0v_PtBoaZ_c-8" value="Wait an amount of time" style="rounded=1;whiteSpace=wrap;html=1;fontSize=12;glass=0;strokeWidth=1;shadow=0;fillColor=#FFFFFF;fontColor=#000000;strokeColor=#000000;" parent="_AjF4Cdxy0v_PtBoaZ_c-81" vertex="1">
          <mxGeometry x="47.5" y="515" width="139" height="40" as="geometry" />
        </mxCell>
        <mxCell id="_AjF4Cdxy0v_PtBoaZ_c-12" value="Yes" style="rounded=0;html=1;jettySize=auto;orthogonalLoop=1;fontSize=11;endArrow=classic;endFill=1;endSize=8;strokeWidth=1;shadow=0;labelBackgroundColor=none;edgeStyle=orthogonalEdgeStyle;exitX=0;exitY=0.5;exitDx=0;exitDy=0;entryX=0.469;entryY=0;entryDx=0;entryDy=0;entryPerimeter=0;labelPosition=center;verticalLabelPosition=top;align=center;verticalAlign=bottom;spacingBottom=20;fontColor=#000000;strokeColor=#000000;" parent="_AjF4Cdxy0v_PtBoaZ_c-81" source="_AjF4Cdxy0v_PtBoaZ_c-6" target="_AjF4Cdxy0v_PtBoaZ_c-8" edge="1">
          <mxGeometry y="20" relative="1" as="geometry">
            <mxPoint as="offset" />
            <mxPoint x="-3.0299999999999727" y="410" as="sourcePoint" />
            <mxPoint x="146.97000000000003" y="490" as="targetPoint" />
          </mxGeometry>
        </mxCell>
        <mxCell id="_AjF4Cdxy0v_PtBoaZ_c-17" value="Yes" style="rounded=0;html=1;jettySize=auto;orthogonalLoop=1;fontSize=11;endArrow=classic;endFill=1;endSize=8;strokeWidth=1;shadow=0;labelBackgroundColor=none;edgeStyle=orthogonalEdgeStyle;exitX=0.5;exitY=1;exitDx=0;exitDy=0;fontColor=#000000;strokeColor=#000000;labelPosition=center;verticalLabelPosition=top;align=center;verticalAlign=bottom;spacingBottom=30;" parent="_AjF4Cdxy0v_PtBoaZ_c-81" source="WIyWlLk6GJQsqaUBKTNV-6" edge="1">
          <mxGeometry y="20" relative="1" as="geometry">
            <mxPoint as="offset" />
            <mxPoint x="97.5" y="180" as="sourcePoint" />
            <mxPoint x="247.5" y="260" as="targetPoint" />
          </mxGeometry>
        </mxCell>
        <mxCell id="_AjF4Cdxy0v_PtBoaZ_c-18" value="Download last parameters from the blockchain and save them locally" style="rounded=1;whiteSpace=wrap;html=1;fontSize=12;glass=0;strokeWidth=1;shadow=0;fillColor=#FFFFFF;fontColor=#000000;strokeColor=#000000;" parent="_AjF4Cdxy0v_PtBoaZ_c-81" vertex="1">
          <mxGeometry x="257.5" y="520" width="220" height="40" as="geometry" />
        </mxCell>
        <mxCell id="_AjF4Cdxy0v_PtBoaZ_c-79" value="No" style="edgeStyle=orthogonalEdgeStyle;rounded=0;orthogonalLoop=1;jettySize=auto;html=1;exitX=1;exitY=0.5;exitDx=0;exitDy=0;entryX=0.5;entryY=0;entryDx=0;entryDy=0;strokeColor=#000000;labelBackgroundColor=none;fontColor=#000000;labelPosition=center;verticalLabelPosition=top;align=center;verticalAlign=bottom;spacingBottom=25;" parent="_AjF4Cdxy0v_PtBoaZ_c-81" source="_AjF4Cdxy0v_PtBoaZ_c-6" target="_AjF4Cdxy0v_PtBoaZ_c-18" edge="1">
          <mxGeometry relative="1" as="geometry" />
        </mxCell>
        <mxCell id="_AjF4Cdxy0v_PtBoaZ_c-22" value="Train the model" style="rounded=1;whiteSpace=wrap;html=1;fontSize=12;glass=0;strokeWidth=1;shadow=0;fillColor=#FFFFFF;fontColor=#000000;strokeColor=#000000;" parent="_AjF4Cdxy0v_PtBoaZ_c-81" vertex="1">
          <mxGeometry x="287.5" y="600" width="160" height="40" as="geometry" />
        </mxCell>
        <mxCell id="_AjF4Cdxy0v_PtBoaZ_c-24" style="edgeStyle=orthogonalEdgeStyle;rounded=0;orthogonalLoop=1;jettySize=auto;html=1;entryX=1;entryY=0.5;entryDx=0;entryDy=0;fontColor=#000000;strokeColor=#000000;" parent="_AjF4Cdxy0v_PtBoaZ_c-81" source="_AjF4Cdxy0v_PtBoaZ_c-0" target="_AjF4Cdxy0v_PtBoaZ_c-22" edge="1">
          <mxGeometry relative="1" as="geometry" />
        </mxCell>
        <mxCell id="_AjF4Cdxy0v_PtBoaZ_c-25" value="Check if the blockchain is ready to receive new parameters" style="rounded=1;whiteSpace=wrap;html=1;fontSize=12;glass=0;strokeWidth=1;shadow=0;fillColor=#FFFFFF;fontColor=#000000;strokeColor=#000000;" parent="_AjF4Cdxy0v_PtBoaZ_c-81" vertex="1">
          <mxGeometry x="182.5" y="800" width="370" height="40" as="geometry" />
        </mxCell>
        <mxCell id="_AjF4Cdxy0v_PtBoaZ_c-23" value="" style="edgeStyle=orthogonalEdgeStyle;rounded=0;orthogonalLoop=1;jettySize=auto;html=1;fontColor=#000000;strokeColor=#000000;" parent="_AjF4Cdxy0v_PtBoaZ_c-81" source="_AjF4Cdxy0v_PtBoaZ_c-18" target="_AjF4Cdxy0v_PtBoaZ_c-22" edge="1">
          <mxGeometry relative="1" as="geometry" />
        </mxCell>
        <mxCell id="_AjF4Cdxy0v_PtBoaZ_c-61" value="Blockchain available?" style="rhombus;whiteSpace=wrap;html=1;shadow=0;fontFamily=Helvetica;fontSize=12;align=center;strokeWidth=1;spacing=6;spacingTop=-4;fillColor=#FFFFFF;fontColor=#000000;strokeColor=#000000;" parent="_AjF4Cdxy0v_PtBoaZ_c-81" vertex="1">
          <mxGeometry x="308.25" y="900" width="118.5" height="100" as="geometry" />
        </mxCell>
        <mxCell id="_AjF4Cdxy0v_PtBoaZ_c-62" value="" style="edgeStyle=orthogonalEdgeStyle;rounded=0;orthogonalLoop=1;jettySize=auto;html=1;labelBackgroundColor=default;fontColor=#000000;strokeColor=#000000;" parent="_AjF4Cdxy0v_PtBoaZ_c-81" source="_AjF4Cdxy0v_PtBoaZ_c-25" target="_AjF4Cdxy0v_PtBoaZ_c-61" edge="1">
          <mxGeometry relative="1" as="geometry" />
        </mxCell>
        <mxCell id="_AjF4Cdxy0v_PtBoaZ_c-64" value="" style="edgeStyle=orthogonalEdgeStyle;rounded=0;orthogonalLoop=1;jettySize=auto;html=1;fontColor=#000000;strokeColor=#000000;" parent="_AjF4Cdxy0v_PtBoaZ_c-81" source="_AjF4Cdxy0v_PtBoaZ_c-22" target="_AjF4Cdxy0v_PtBoaZ_c-63" edge="1">
          <mxGeometry relative="1" as="geometry">
            <mxPoint x="367.5" y="670" as="sourcePoint" />
            <mxPoint x="367.5" y="790" as="targetPoint" />
          </mxGeometry>
        </mxCell>
        <mxCell id="_AjF4Cdxy0v_PtBoaZ_c-63" value="Prepare the training parameters and compress them" style="rounded=1;whiteSpace=wrap;html=1;fontSize=12;glass=0;strokeWidth=1;shadow=0;fillColor=#FFFFFF;fontColor=#000000;strokeColor=#000000;" parent="_AjF4Cdxy0v_PtBoaZ_c-81" vertex="1">
          <mxGeometry x="233.5" y="660" width="268" height="40" as="geometry" />
        </mxCell>
        <mxCell id="_AjF4Cdxy0v_PtBoaZ_c-26" value="" style="edgeStyle=orthogonalEdgeStyle;rounded=0;orthogonalLoop=1;jettySize=auto;html=1;fontColor=#000000;strokeColor=#000000;" parent="_AjF4Cdxy0v_PtBoaZ_c-81" source="_AjF4Cdxy0v_PtBoaZ_c-63" target="_AjF4Cdxy0v_PtBoaZ_c-25" edge="1">
          <mxGeometry relative="1" as="geometry" />
        </mxCell>
        <mxCell id="_AjF4Cdxy0v_PtBoaZ_c-65" value="Upload the compressed parameters with the signature" style="rounded=1;whiteSpace=wrap;html=1;fontSize=12;glass=0;strokeWidth=1;shadow=0;fillColor=#FFFFFF;fontColor=#000000;strokeColor=#000000;" parent="_AjF4Cdxy0v_PtBoaZ_c-81" vertex="1">
          <mxGeometry x="417.5" y="1099" width="299" height="40" as="geometry" />
        </mxCell>
        <mxCell id="_AjF4Cdxy0v_PtBoaZ_c-72" value="Yes" style="edgeStyle=orthogonalEdgeStyle;rounded=0;orthogonalLoop=1;jettySize=auto;html=1;entryX=0.5;entryY=0;entryDx=0;entryDy=0;exitX=1;exitY=0.5;exitDx=0;exitDy=0;labelPosition=center;verticalLabelPosition=top;align=center;verticalAlign=bottom;spacingTop=0;spacingBottom=10;fontColor=#000000;strokeColor=#000000;labelBackgroundColor=none;" parent="_AjF4Cdxy0v_PtBoaZ_c-81" source="_AjF4Cdxy0v_PtBoaZ_c-61" target="_AjF4Cdxy0v_PtBoaZ_c-65" edge="1">
          <mxGeometry relative="1" as="geometry" />
        </mxCell>
        <mxCell id="_AjF4Cdxy0v_PtBoaZ_c-69" style="edgeStyle=orthogonalEdgeStyle;rounded=0;orthogonalLoop=1;jettySize=auto;html=1;entryX=0;entryY=0.5;entryDx=0;entryDy=0;exitX=0;exitY=0.5;exitDx=0;exitDy=0;fontColor=#000000;strokeColor=#000000;" parent="_AjF4Cdxy0v_PtBoaZ_c-81" source="_AjF4Cdxy0v_PtBoaZ_c-66" target="_AjF4Cdxy0v_PtBoaZ_c-25" edge="1">
          <mxGeometry relative="1" as="geometry">
            <Array as="points">
              <mxPoint x="117.5" y="1119" />
              <mxPoint x="76.5" y="1120" />
              <mxPoint x="76.5" y="820" />
            </Array>
          </mxGeometry>
        </mxCell>
        <mxCell id="_AjF4Cdxy0v_PtBoaZ_c-66" value="Wait an amount of time" style="rounded=1;whiteSpace=wrap;html=1;fontSize=12;glass=0;strokeWidth=1;shadow=0;fillColor=#FFFFFF;fontColor=#000000;strokeColor=#000000;" parent="_AjF4Cdxy0v_PtBoaZ_c-81" vertex="1">
          <mxGeometry x="96.5" y="1099" width="170" height="40" as="geometry" />
        </mxCell>
        <mxCell id="_AjF4Cdxy0v_PtBoaZ_c-70" value="No" style="edgeStyle=orthogonalEdgeStyle;rounded=0;orthogonalLoop=1;jettySize=auto;html=1;entryX=0.5;entryY=0;entryDx=0;entryDy=0;labelPosition=center;verticalLabelPosition=top;align=center;verticalAlign=bottom;spacingBottom=20;fontColor=#000000;strokeColor=#000000;labelBackgroundColor=none;" parent="_AjF4Cdxy0v_PtBoaZ_c-81" source="_AjF4Cdxy0v_PtBoaZ_c-61" target="_AjF4Cdxy0v_PtBoaZ_c-66" edge="1">
          <mxGeometry relative="1" as="geometry" />
        </mxCell>
        <mxCell id="TcvCWiGCXcqQKO5gOGTl-2" value="Sign the compressed parameters" style="rounded=1;whiteSpace=wrap;html=1;fontSize=12;glass=0;strokeWidth=1;shadow=0;fillColor=#FFFFFF;fontColor=#000000;strokeColor=#000000;" parent="_AjF4Cdxy0v_PtBoaZ_c-81" vertex="1">
          <mxGeometry x="233.5" y="730" width="268" height="40" as="geometry" />
        </mxCell>
        <mxCell id="TcvCWiGCXcqQKO5gOGTl-3" value="" style="group" parent="WIyWlLk6GJQsqaUBKTNV-1" vertex="1" connectable="0">
          <mxGeometry x="-1340" y="60" width="1000" height="1450" as="geometry" />
        </mxCell>
        <mxCell id="_AjF4Cdxy0v_PtBoaZ_c-82" value="" style="rounded=0;whiteSpace=wrap;html=1;fillColor=#FFFFFF;" parent="TcvCWiGCXcqQKO5gOGTl-3" vertex="1">
          <mxGeometry width="1000" height="1450" as="geometry" />
        </mxCell>
        <mxCell id="_AjF4Cdxy0v_PtBoaZ_c-27" value="Verify uploaded parameters signature" style="rounded=1;whiteSpace=wrap;html=1;fontSize=12;glass=0;strokeWidth=1;shadow=0;labelBackgroundColor=none;fontColor=#000000;strokeColor=#000000;fillColor=#FFFFFF;" parent="TcvCWiGCXcqQKO5gOGTl-3" vertex="1">
          <mxGeometry x="400" y="30" width="320" height="50" as="geometry" />
        </mxCell>
        <mxCell id="_AjF4Cdxy0v_PtBoaZ_c-29" value="Signature verified?" style="rhombus;whiteSpace=wrap;html=1;labelBackgroundColor=none;fontColor=#000000;strokeColor=#000000;fillColor=#FFFFFF;" parent="TcvCWiGCXcqQKO5gOGTl-3" vertex="1">
          <mxGeometry x="500" y="125" width="120" height="110" as="geometry" />
        </mxCell>
        <mxCell id="_AjF4Cdxy0v_PtBoaZ_c-30" value="" style="edgeStyle=orthogonalEdgeStyle;rounded=0;orthogonalLoop=1;jettySize=auto;html=1;labelBackgroundColor=default;fontColor=#000000;strokeColor=#000000;" parent="TcvCWiGCXcqQKO5gOGTl-3" source="_AjF4Cdxy0v_PtBoaZ_c-27" target="_AjF4Cdxy0v_PtBoaZ_c-29" edge="1">
          <mxGeometry relative="1" as="geometry" />
        </mxCell>
        <mxCell id="_AjF4Cdxy0v_PtBoaZ_c-31" value="Parameters rejected" style="rounded=1;whiteSpace=wrap;html=1;labelBackgroundColor=none;fontColor=#000000;strokeColor=#000000;fillColor=#FFFFFF;" parent="TcvCWiGCXcqQKO5gOGTl-3" vertex="1">
          <mxGeometry x="670" y="275" width="150" height="60" as="geometry" />
        </mxCell>
        <mxCell id="_AjF4Cdxy0v_PtBoaZ_c-32" value="No" style="edgeStyle=orthogonalEdgeStyle;rounded=0;orthogonalLoop=1;jettySize=auto;html=1;labelPosition=center;verticalLabelPosition=top;align=center;verticalAlign=bottom;spacingBottom=10;labelBackgroundColor=none;fontColor=#000000;strokeColor=#000000;" parent="TcvCWiGCXcqQKO5gOGTl-3" source="_AjF4Cdxy0v_PtBoaZ_c-29" target="_AjF4Cdxy0v_PtBoaZ_c-31" edge="1">
          <mxGeometry relative="1" as="geometry">
            <mxPoint x="730.037037037037" y="275" as="targetPoint" />
          </mxGeometry>
        </mxCell>
        <mxCell id="_AjF4Cdxy0v_PtBoaZ_c-33" value="Decompress parameters" style="rounded=1;whiteSpace=wrap;html=1;labelBackgroundColor=none;fontColor=#000000;strokeColor=#000000;fillColor=#FFFFFF;" parent="TcvCWiGCXcqQKO5gOGTl-3" vertex="1">
          <mxGeometry x="350" y="220" width="120" height="55" as="geometry" />
        </mxCell>
        <mxCell id="_AjF4Cdxy0v_PtBoaZ_c-34" value="Yes" style="edgeStyle=orthogonalEdgeStyle;rounded=0;orthogonalLoop=1;jettySize=auto;html=1;entryX=0.5;entryY=0;entryDx=0;entryDy=0;labelPosition=center;verticalLabelPosition=top;align=center;verticalAlign=bottom;spacingBottom=10;labelBackgroundColor=none;fontColor=#000000;strokeColor=#000000;" parent="TcvCWiGCXcqQKO5gOGTl-3" source="_AjF4Cdxy0v_PtBoaZ_c-29" target="_AjF4Cdxy0v_PtBoaZ_c-33" edge="1">
          <mxGeometry relative="1" as="geometry" />
        </mxCell>
        <mxCell id="_AjF4Cdxy0v_PtBoaZ_c-39" value="Update doctor&#39;s reputation based on verification results" style="rounded=1;whiteSpace=wrap;html=1;labelBackgroundColor=none;fontColor=#000000;strokeColor=#000000;fillColor=#FFFFFF;" parent="TcvCWiGCXcqQKO5gOGTl-3" vertex="1">
          <mxGeometry x="325" y="420" width="170" height="55" as="geometry" />
        </mxCell>
        <mxCell id="_AjF4Cdxy0v_PtBoaZ_c-40" value="Parameters are valid?" style="rhombus;whiteSpace=wrap;html=1;labelBackgroundColor=none;fontColor=#000000;strokeColor=#000000;fillColor=#FFFFFF;" parent="TcvCWiGCXcqQKO5gOGTl-3" vertex="1">
          <mxGeometry x="335" y="530" width="150" height="110" as="geometry" />
        </mxCell>
        <mxCell id="_AjF4Cdxy0v_PtBoaZ_c-43" value="" style="edgeStyle=orthogonalEdgeStyle;rounded=0;orthogonalLoop=1;jettySize=auto;html=1;labelBackgroundColor=default;fontColor=#000000;strokeColor=#000000;" parent="TcvCWiGCXcqQKO5gOGTl-3" source="_AjF4Cdxy0v_PtBoaZ_c-39" target="_AjF4Cdxy0v_PtBoaZ_c-40" edge="1">
          <mxGeometry relative="1" as="geometry" />
        </mxCell>
        <mxCell id="_AjF4Cdxy0v_PtBoaZ_c-41" value="Add parameters to the list of parameters used for aggregation" style="rounded=1;whiteSpace=wrap;html=1;labelBackgroundColor=none;fontColor=#000000;strokeColor=#000000;fillColor=#FFFFFF;" parent="TcvCWiGCXcqQKO5gOGTl-3" vertex="1">
          <mxGeometry x="510" y="680" width="240" height="55" as="geometry" />
        </mxCell>
        <mxCell id="_AjF4Cdxy0v_PtBoaZ_c-45" value="Yes" style="edgeStyle=orthogonalEdgeStyle;rounded=0;orthogonalLoop=1;jettySize=auto;html=1;exitX=1;exitY=0.5;exitDx=0;exitDy=0;entryX=0.5;entryY=0;entryDx=0;entryDy=0;labelBackgroundColor=none;fontColor=#000000;strokeColor=#000000;labelPosition=center;verticalLabelPosition=top;align=center;verticalAlign=bottom;spacingBottom=10;" parent="TcvCWiGCXcqQKO5gOGTl-3" source="_AjF4Cdxy0v_PtBoaZ_c-40" target="_AjF4Cdxy0v_PtBoaZ_c-41" edge="1">
          <mxGeometry relative="1" as="geometry" />
        </mxCell>
        <mxCell id="_AjF4Cdxy0v_PtBoaZ_c-42" value="Parameters rejected" style="rounded=1;whiteSpace=wrap;html=1;labelBackgroundColor=none;fontColor=#000000;strokeColor=#000000;fillColor=#FFFFFF;" parent="TcvCWiGCXcqQKO5gOGTl-3" vertex="1">
          <mxGeometry x="100" y="680" width="170" height="55" as="geometry" />
        </mxCell>
        <mxCell id="_AjF4Cdxy0v_PtBoaZ_c-44" value="No" style="edgeStyle=orthogonalEdgeStyle;rounded=0;orthogonalLoop=1;jettySize=auto;html=1;entryX=0.478;entryY=-0.055;entryDx=0;entryDy=0;entryPerimeter=0;exitX=0;exitY=0.5;exitDx=0;exitDy=0;labelBackgroundColor=none;fontColor=#000000;strokeColor=#000000;labelPosition=center;verticalLabelPosition=top;align=center;verticalAlign=bottom;spacingBottom=10;" parent="TcvCWiGCXcqQKO5gOGTl-3" source="_AjF4Cdxy0v_PtBoaZ_c-40" target="_AjF4Cdxy0v_PtBoaZ_c-42" edge="1">
          <mxGeometry relative="1" as="geometry" />
        </mxCell>
        <mxCell id="_AjF4Cdxy0v_PtBoaZ_c-47" value="Parameters to aggregate surpassed the threshold?" style="rhombus;whiteSpace=wrap;html=1;labelBackgroundColor=none;fontColor=#000000;strokeColor=#000000;fillColor=#FFFFFF;" parent="TcvCWiGCXcqQKO5gOGTl-3" vertex="1">
          <mxGeometry x="565" y="820" width="130" height="120" as="geometry" />
        </mxCell>
        <mxCell id="_AjF4Cdxy0v_PtBoaZ_c-48" value="" style="edgeStyle=orthogonalEdgeStyle;rounded=0;orthogonalLoop=1;jettySize=auto;html=1;labelBackgroundColor=default;fontColor=#000000;strokeColor=#000000;" parent="TcvCWiGCXcqQKO5gOGTl-3" source="_AjF4Cdxy0v_PtBoaZ_c-41" target="_AjF4Cdxy0v_PtBoaZ_c-47" edge="1">
          <mxGeometry relative="1" as="geometry" />
        </mxCell>
        <mxCell id="_AjF4Cdxy0v_PtBoaZ_c-49" value="Set the availability to receive new parameter to FALSE" style="rounded=1;whiteSpace=wrap;html=1;labelBackgroundColor=none;fontColor=#000000;strokeColor=#000000;fillColor=#FFFFFF;" parent="TcvCWiGCXcqQKO5gOGTl-3" vertex="1">
          <mxGeometry x="715" y="970" width="270" height="55" as="geometry" />
        </mxCell>
        <mxCell id="_AjF4Cdxy0v_PtBoaZ_c-50" value="Yes" style="edgeStyle=orthogonalEdgeStyle;rounded=0;orthogonalLoop=1;jettySize=auto;html=1;entryX=0.5;entryY=0;entryDx=0;entryDy=0;labelPosition=center;verticalLabelPosition=top;align=center;verticalAlign=bottom;spacingBottom=10;labelBackgroundColor=none;fontColor=#000000;strokeColor=#000000;" parent="TcvCWiGCXcqQKO5gOGTl-3" source="_AjF4Cdxy0v_PtBoaZ_c-47" target="_AjF4Cdxy0v_PtBoaZ_c-49" edge="1">
          <mxGeometry relative="1" as="geometry" />
        </mxCell>
        <mxCell id="_AjF4Cdxy0v_PtBoaZ_c-51" value="Update the global model parameters with the new aggregated ones" style="rounded=1;whiteSpace=wrap;html=1;labelBackgroundColor=none;fontColor=#000000;strokeColor=#000000;fillColor=#FFFFFF;" parent="TcvCWiGCXcqQKO5gOGTl-3" vertex="1">
          <mxGeometry x="733" y="1150" width="240" height="55" as="geometry" />
        </mxCell>
        <mxCell id="_AjF4Cdxy0v_PtBoaZ_c-52" value="Reset the uploaded parameters counter to zero" style="rounded=1;whiteSpace=wrap;html=1;labelBackgroundColor=none;fontColor=#000000;strokeColor=#000000;fillColor=#FFFFFF;" parent="TcvCWiGCXcqQKO5gOGTl-3" vertex="1">
          <mxGeometry x="732" y="1270" width="240" height="55" as="geometry" />
        </mxCell>
        <mxCell id="_AjF4Cdxy0v_PtBoaZ_c-60" value="" style="edgeStyle=orthogonalEdgeStyle;rounded=0;orthogonalLoop=1;jettySize=auto;html=1;labelBackgroundColor=default;fontColor=#000000;strokeColor=#000000;" parent="TcvCWiGCXcqQKO5gOGTl-3" source="_AjF4Cdxy0v_PtBoaZ_c-51" target="_AjF4Cdxy0v_PtBoaZ_c-52" edge="1">
          <mxGeometry relative="1" as="geometry" />
        </mxCell>
        <mxCell id="_AjF4Cdxy0v_PtBoaZ_c-53" value="Set the availability to receive new parameter to TRUE" style="rounded=1;whiteSpace=wrap;html=1;labelBackgroundColor=none;fontColor=#000000;strokeColor=#000000;fillColor=#FFFFFF;" parent="TcvCWiGCXcqQKO5gOGTl-3" vertex="1">
          <mxGeometry x="712" y="1380" width="280" height="55" as="geometry" />
        </mxCell>
        <mxCell id="_AjF4Cdxy0v_PtBoaZ_c-58" value="" style="edgeStyle=orthogonalEdgeStyle;rounded=0;orthogonalLoop=1;jettySize=auto;html=1;labelBackgroundColor=default;fontColor=#000000;strokeColor=#000000;" parent="TcvCWiGCXcqQKO5gOGTl-3" source="_AjF4Cdxy0v_PtBoaZ_c-52" target="_AjF4Cdxy0v_PtBoaZ_c-53" edge="1">
          <mxGeometry relative="1" as="geometry" />
        </mxCell>
        <mxCell id="_AjF4Cdxy0v_PtBoaZ_c-56" value="" style="edgeStyle=orthogonalEdgeStyle;rounded=0;orthogonalLoop=1;jettySize=auto;html=1;entryX=0.49;entryY=-0.036;entryDx=0;entryDy=0;entryPerimeter=0;labelBackgroundColor=default;fontColor=#000000;strokeColor=#000000;" parent="TcvCWiGCXcqQKO5gOGTl-3" source="_AjF4Cdxy0v_PtBoaZ_c-54" target="_AjF4Cdxy0v_PtBoaZ_c-51" edge="1">
          <mxGeometry relative="1" as="geometry">
            <mxPoint x="850" y="1140" as="targetPoint" />
          </mxGeometry>
        </mxCell>
        <mxCell id="_AjF4Cdxy0v_PtBoaZ_c-54" value="Run aggregation on the list of uploaded parameters" style="rounded=1;whiteSpace=wrap;html=1;labelBackgroundColor=none;fontColor=#000000;strokeColor=#000000;fillColor=#FFFFFF;" parent="TcvCWiGCXcqQKO5gOGTl-3" vertex="1">
          <mxGeometry x="730" y="1060" width="240" height="55" as="geometry" />
        </mxCell>
        <mxCell id="_AjF4Cdxy0v_PtBoaZ_c-55" value="" style="edgeStyle=orthogonalEdgeStyle;rounded=0;orthogonalLoop=1;jettySize=auto;html=1;labelBackgroundColor=default;fontColor=#000000;strokeColor=#000000;" parent="TcvCWiGCXcqQKO5gOGTl-3" source="_AjF4Cdxy0v_PtBoaZ_c-49" target="_AjF4Cdxy0v_PtBoaZ_c-54" edge="1">
          <mxGeometry relative="1" as="geometry" />
        </mxCell>
        <mxCell id="_AjF4Cdxy0v_PtBoaZ_c-59" value="No" style="edgeStyle=orthogonalEdgeStyle;rounded=0;orthogonalLoop=1;jettySize=auto;html=1;entryX=0;entryY=0.25;entryDx=0;entryDy=0;labelPosition=center;verticalLabelPosition=top;align=center;verticalAlign=bottom;spacingBottom=10;exitX=0;exitY=0.504;exitDx=0;exitDy=0;spacingLeft=0;spacingRight=30;exitPerimeter=0;fontSize=15;labelBackgroundColor=none;fontColor=#000000;strokeColor=#000000;" parent="TcvCWiGCXcqQKO5gOGTl-3" edge="1">
          <mxGeometry relative="1" as="geometry">
            <mxPoint x="565" y="880.98" as="sourcePoint" />
            <mxPoint x="399" y="50" as="targetPoint" />
            <Array as="points">
              <mxPoint x="39" y="881.5" />
              <mxPoint x="39" y="50.5" />
            </Array>
          </mxGeometry>
        </mxCell>
        <mxCell id="TcvCWiGCXcqQKO5gOGTl-1" value="" style="edgeStyle=orthogonalEdgeStyle;rounded=0;orthogonalLoop=1;jettySize=auto;html=1;entryX=0.5;entryY=0;entryDx=0;entryDy=0;labelBackgroundColor=default;fontColor=#000000;strokeColor=#000000;" parent="TcvCWiGCXcqQKO5gOGTl-3" source="_AjF4Cdxy0v_PtBoaZ_c-33" target="TcvCWiGCXcqQKO5gOGTl-0" edge="1">
          <mxGeometry relative="1" as="geometry">
            <mxPoint x="410" y="420" as="targetPoint" />
            <mxPoint x="410" y="275" as="sourcePoint" />
          </mxGeometry>
        </mxCell>
        <mxCell id="TcvCWiGCXcqQKO5gOGTl-0" value="Check validity of parameters" style="rounded=1;whiteSpace=wrap;html=1;labelBackgroundColor=none;fontColor=#000000;strokeColor=#000000;fillColor=#FFFFFF;" parent="TcvCWiGCXcqQKO5gOGTl-3" vertex="1">
          <mxGeometry x="350" y="320" width="120" height="55" as="geometry" />
        </mxCell>
        <mxCell id="_AjF4Cdxy0v_PtBoaZ_c-38" value="" style="edgeStyle=orthogonalEdgeStyle;rounded=0;orthogonalLoop=1;jettySize=auto;html=1;entryX=0.5;entryY=0;entryDx=0;entryDy=0;labelBackgroundColor=default;fontColor=#000000;strokeColor=#000000;" parent="TcvCWiGCXcqQKO5gOGTl-3" source="TcvCWiGCXcqQKO5gOGTl-0" target="_AjF4Cdxy0v_PtBoaZ_c-39" edge="1">
          <mxGeometry relative="1" as="geometry">
            <mxPoint x="410" y="400.0000000000002" as="targetPoint" />
          </mxGeometry>
        </mxCell>
      </root>
    </mxGraphModel>
  </diagram>
</mxfile>
